<mxfile host="app.diagrams.net" modified="2023-04-13T08:00:12.689Z" agent="Mozilla/5.0 (Windows NT 10.0; Win64; x64) AppleWebKit/537.36 (KHTML, like Gecko) Chrome/111.0.0.0 Safari/537.36 Edg/111.0.1661.62" etag="t4r75NACxh2y39VvLZJM" version="21.1.6" type="github">
  <diagram id="C5RBs43oDa-KdzZeNtuy" name="Page-1">
    <mxGraphModel dx="1391" dy="797" grid="1" gridSize="10" guides="1" tooltips="1" connect="1" arrows="1" fold="1" page="1" pageScale="1" pageWidth="827" pageHeight="1169" math="0" shadow="0">
      <root>
        <mxCell id="WIyWlLk6GJQsqaUBKTNV-0" />
        <mxCell id="WIyWlLk6GJQsqaUBKTNV-1" parent="WIyWlLk6GJQsqaUBKTNV-0" />
        <mxCell id="cDFgAh4fGzeyeDYclZq2-79" style="edgeStyle=orthogonalEdgeStyle;rounded=0;orthogonalLoop=1;jettySize=auto;html=1;" edge="1" parent="WIyWlLk6GJQsqaUBKTNV-1" source="cDFgAh4fGzeyeDYclZq2-76" target="cDFgAh4fGzeyeDYclZq2-78">
          <mxGeometry relative="1" as="geometry" />
        </mxCell>
        <mxCell id="cDFgAh4fGzeyeDYclZq2-80" value="Component pressed-1" style="edgeLabel;html=1;align=center;verticalAlign=middle;resizable=0;points=[];" vertex="1" connectable="0" parent="cDFgAh4fGzeyeDYclZq2-79">
          <mxGeometry x="-0.206" y="-1" relative="1" as="geometry">
            <mxPoint as="offset" />
          </mxGeometry>
        </mxCell>
        <mxCell id="cDFgAh4fGzeyeDYclZq2-76" value="" style="rounded=0;whiteSpace=wrap;html=1;" vertex="1" parent="WIyWlLk6GJQsqaUBKTNV-1">
          <mxGeometry x="60" y="524" width="360" height="256" as="geometry" />
        </mxCell>
        <mxCell id="cDFgAh4fGzeyeDYclZq2-31" value="" style="whiteSpace=wrap;html=1;aspect=fixed;" vertex="1" parent="WIyWlLk6GJQsqaUBKTNV-1">
          <mxGeometry x="1040" y="20" width="680" height="680" as="geometry" />
        </mxCell>
        <mxCell id="cDFgAh4fGzeyeDYclZq2-12" style="edgeStyle=orthogonalEdgeStyle;rounded=0;orthogonalLoop=1;jettySize=auto;html=1;entryX=0.5;entryY=0;entryDx=0;entryDy=0;" edge="1" parent="WIyWlLk6GJQsqaUBKTNV-1" source="cDFgAh4fGzeyeDYclZq2-10" target="cDFgAh4fGzeyeDYclZq2-11">
          <mxGeometry relative="1" as="geometry" />
        </mxCell>
        <mxCell id="cDFgAh4fGzeyeDYclZq2-14" value="WakeUp" style="edgeLabel;html=1;align=center;verticalAlign=middle;resizable=0;points=[];" vertex="1" connectable="0" parent="cDFgAh4fGzeyeDYclZq2-12">
          <mxGeometry x="-0.1791" y="-1" relative="1" as="geometry">
            <mxPoint as="offset" />
          </mxGeometry>
        </mxCell>
        <mxCell id="cDFgAh4fGzeyeDYclZq2-10" value="&#xa;&lt;span style=&quot;color: rgb(0, 0, 0); font-family: Helvetica; font-size: 12px; font-style: normal; font-variant-ligatures: normal; font-variant-caps: normal; font-weight: 400; letter-spacing: normal; orphans: 2; text-align: center; text-indent: 0px; text-transform: none; widows: 2; word-spacing: 0px; -webkit-text-stroke-width: 0px; background-color: rgb(251, 251, 251); text-decoration-thickness: initial; text-decoration-style: initial; text-decoration-color: initial; float: none; display: inline !important;&quot;&gt;BLE disconnected&lt;/span&gt;&#xa;&#xa;" style="shape=tape;whiteSpace=wrap;html=1;" vertex="1" parent="WIyWlLk6GJQsqaUBKTNV-1">
          <mxGeometry x="1060" y="20" width="120" height="100" as="geometry" />
        </mxCell>
        <mxCell id="cDFgAh4fGzeyeDYclZq2-15" style="edgeStyle=orthogonalEdgeStyle;rounded=0;orthogonalLoop=1;jettySize=auto;html=1;entryX=0.5;entryY=0;entryDx=0;entryDy=0;exitX=0.5;exitY=1;exitDx=0;exitDy=0;" edge="1" parent="WIyWlLk6GJQsqaUBKTNV-1" source="cDFgAh4fGzeyeDYclZq2-19" target="cDFgAh4fGzeyeDYclZq2-13">
          <mxGeometry relative="1" as="geometry" />
        </mxCell>
        <mxCell id="cDFgAh4fGzeyeDYclZq2-16" value="Open timer" style="edgeLabel;html=1;align=center;verticalAlign=middle;resizable=0;points=[];" vertex="1" connectable="0" parent="cDFgAh4fGzeyeDYclZq2-15">
          <mxGeometry x="-0.119" y="2" relative="1" as="geometry">
            <mxPoint as="offset" />
          </mxGeometry>
        </mxCell>
        <mxCell id="cDFgAh4fGzeyeDYclZq2-20" style="edgeStyle=orthogonalEdgeStyle;rounded=0;orthogonalLoop=1;jettySize=auto;html=1;entryX=0.5;entryY=0;entryDx=0;entryDy=0;" edge="1" parent="WIyWlLk6GJQsqaUBKTNV-1" source="cDFgAh4fGzeyeDYclZq2-11" target="cDFgAh4fGzeyeDYclZq2-19">
          <mxGeometry relative="1" as="geometry" />
        </mxCell>
        <mxCell id="cDFgAh4fGzeyeDYclZq2-11" value="Key Pressed" style="rounded=0;whiteSpace=wrap;html=1;" vertex="1" parent="WIyWlLk6GJQsqaUBKTNV-1">
          <mxGeometry x="1060" y="165" width="120" height="60" as="geometry" />
        </mxCell>
        <mxCell id="cDFgAh4fGzeyeDYclZq2-13" value="Waiting timeout &amp;amp; Sleep" style="rounded=0;whiteSpace=wrap;html=1;" vertex="1" parent="WIyWlLk6GJQsqaUBKTNV-1">
          <mxGeometry x="1060" y="370" width="120" height="60" as="geometry" />
        </mxCell>
        <mxCell id="cDFgAh4fGzeyeDYclZq2-17" value="" style="endArrow=none;dashed=1;html=1;dashPattern=1 3;strokeWidth=2;rounded=0;entryX=0.5;entryY=1;entryDx=0;entryDy=0;exitX=0.5;exitY=0;exitDx=0;exitDy=0;" edge="1" parent="WIyWlLk6GJQsqaUBKTNV-1" source="cDFgAh4fGzeyeDYclZq2-18" target="cDFgAh4fGzeyeDYclZq2-13">
          <mxGeometry width="50" height="50" relative="1" as="geometry">
            <mxPoint x="1120" y="540" as="sourcePoint" />
            <mxPoint x="1130" y="460" as="targetPoint" />
          </mxGeometry>
        </mxCell>
        <mxCell id="cDFgAh4fGzeyeDYclZq2-21" value="TimeOut" style="edgeLabel;html=1;align=center;verticalAlign=middle;resizable=0;points=[];" vertex="1" connectable="0" parent="cDFgAh4fGzeyeDYclZq2-17">
          <mxGeometry x="-0.1088" y="1" relative="1" as="geometry">
            <mxPoint as="offset" />
          </mxGeometry>
        </mxCell>
        <mxCell id="cDFgAh4fGzeyeDYclZq2-22" style="edgeStyle=orthogonalEdgeStyle;rounded=0;orthogonalLoop=1;jettySize=auto;html=1;entryX=1;entryY=0.5;entryDx=0;entryDy=0;" edge="1" parent="WIyWlLk6GJQsqaUBKTNV-1" source="cDFgAh4fGzeyeDYclZq2-18" target="cDFgAh4fGzeyeDYclZq2-13">
          <mxGeometry relative="1" as="geometry">
            <mxPoint x="1270" y="400" as="targetPoint" />
            <Array as="points">
              <mxPoint x="1290" y="600" />
              <mxPoint x="1290" y="400" />
            </Array>
          </mxGeometry>
        </mxCell>
        <mxCell id="cDFgAh4fGzeyeDYclZq2-23" value="Sleep" style="edgeLabel;html=1;align=center;verticalAlign=middle;resizable=0;points=[];" vertex="1" connectable="0" parent="cDFgAh4fGzeyeDYclZq2-22">
          <mxGeometry x="0.0355" y="2" relative="1" as="geometry">
            <mxPoint as="offset" />
          </mxGeometry>
        </mxCell>
        <mxCell id="cDFgAh4fGzeyeDYclZq2-18" value="Send IR repeat" style="rounded=0;whiteSpace=wrap;html=1;" vertex="1" parent="WIyWlLk6GJQsqaUBKTNV-1">
          <mxGeometry x="1060" y="570" width="120" height="60" as="geometry" />
        </mxCell>
        <mxCell id="cDFgAh4fGzeyeDYclZq2-37" style="edgeStyle=orthogonalEdgeStyle;rounded=0;orthogonalLoop=1;jettySize=auto;html=1;entryX=0;entryY=0.5;entryDx=0;entryDy=0;" edge="1" parent="WIyWlLk6GJQsqaUBKTNV-1" source="cDFgAh4fGzeyeDYclZq2-19" target="cDFgAh4fGzeyeDYclZq2-36">
          <mxGeometry relative="1" as="geometry" />
        </mxCell>
        <mxCell id="cDFgAh4fGzeyeDYclZq2-47" value="timer disable" style="edgeLabel;html=1;align=center;verticalAlign=middle;resizable=0;points=[];" vertex="1" connectable="0" parent="cDFgAh4fGzeyeDYclZq2-37">
          <mxGeometry x="0.1841" y="-1" relative="1" as="geometry">
            <mxPoint as="offset" />
          </mxGeometry>
        </mxCell>
        <mxCell id="cDFgAh4fGzeyeDYclZq2-19" value="Send IR" style="rounded=0;whiteSpace=wrap;html=1;" vertex="1" parent="WIyWlLk6GJQsqaUBKTNV-1">
          <mxGeometry x="1060" y="260" width="120" height="60" as="geometry" />
        </mxCell>
        <mxCell id="cDFgAh4fGzeyeDYclZq2-24" value="" style="endArrow=classic;html=1;rounded=0;entryX=0;entryY=0.5;entryDx=0;entryDy=0;" edge="1" parent="WIyWlLk6GJQsqaUBKTNV-1" target="cDFgAh4fGzeyeDYclZq2-28">
          <mxGeometry relative="1" as="geometry">
            <mxPoint x="1290" y="560" as="sourcePoint" />
            <mxPoint x="1460" y="550" as="targetPoint" />
          </mxGeometry>
        </mxCell>
        <mxCell id="cDFgAh4fGzeyeDYclZq2-25" value="Key Release" style="edgeLabel;resizable=0;html=1;align=center;verticalAlign=middle;" connectable="0" vertex="1" parent="cDFgAh4fGzeyeDYclZq2-24">
          <mxGeometry relative="1" as="geometry" />
        </mxCell>
        <mxCell id="cDFgAh4fGzeyeDYclZq2-26" value="Source" style="edgeLabel;resizable=0;html=1;align=left;verticalAlign=bottom;" connectable="0" vertex="1" parent="cDFgAh4fGzeyeDYclZq2-24">
          <mxGeometry x="-1" relative="1" as="geometry" />
        </mxCell>
        <mxCell id="cDFgAh4fGzeyeDYclZq2-29" style="edgeStyle=orthogonalEdgeStyle;rounded=0;orthogonalLoop=1;jettySize=auto;html=1;" edge="1" parent="WIyWlLk6GJQsqaUBKTNV-1" source="cDFgAh4fGzeyeDYclZq2-28">
          <mxGeometry relative="1" as="geometry">
            <mxPoint x="1690" y="560" as="targetPoint" />
          </mxGeometry>
        </mxCell>
        <mxCell id="cDFgAh4fGzeyeDYclZq2-30" value="Sleep" style="edgeLabel;html=1;align=center;verticalAlign=middle;resizable=0;points=[];" vertex="1" connectable="0" parent="cDFgAh4fGzeyeDYclZq2-29">
          <mxGeometry x="-0.1026" y="1" relative="1" as="geometry">
            <mxPoint as="offset" />
          </mxGeometry>
        </mxCell>
        <mxCell id="cDFgAh4fGzeyeDYclZq2-28" value="Disable IR timer" style="rounded=0;whiteSpace=wrap;html=1;" vertex="1" parent="WIyWlLk6GJQsqaUBKTNV-1">
          <mxGeometry x="1477" y="530" width="120" height="60" as="geometry" />
        </mxCell>
        <mxCell id="cDFgAh4fGzeyeDYclZq2-33" style="edgeStyle=orthogonalEdgeStyle;rounded=0;orthogonalLoop=1;jettySize=auto;html=1;entryX=0;entryY=0.5;entryDx=0;entryDy=0;" edge="1" parent="WIyWlLk6GJQsqaUBKTNV-1" source="cDFgAh4fGzeyeDYclZq2-32" target="cDFgAh4fGzeyeDYclZq2-35">
          <mxGeometry relative="1" as="geometry">
            <mxPoint x="1830" y="360" as="targetPoint" />
          </mxGeometry>
        </mxCell>
        <mxCell id="cDFgAh4fGzeyeDYclZq2-34" value="Wakeup" style="edgeLabel;html=1;align=center;verticalAlign=middle;resizable=0;points=[];" vertex="1" connectable="0" parent="cDFgAh4fGzeyeDYclZq2-33">
          <mxGeometry x="-0.1598" relative="1" as="geometry">
            <mxPoint as="offset" />
          </mxGeometry>
        </mxCell>
        <mxCell id="cDFgAh4fGzeyeDYclZq2-32" value="&lt;br&gt;&lt;span style=&quot;color: rgb(0, 0, 0); font-family: Helvetica; font-size: 12px; font-style: normal; font-variant-ligatures: normal; font-variant-caps: normal; font-weight: 400; letter-spacing: normal; orphans: 2; text-align: center; text-indent: 0px; text-transform: none; widows: 2; word-spacing: 0px; -webkit-text-stroke-width: 0px; background-color: rgb(251, 251, 251); text-decoration-thickness: initial; text-decoration-style: initial; text-decoration-color: initial; float: none; display: inline !important;&quot;&gt;BLE connected&lt;/span&gt;&lt;br&gt;" style="shape=tape;whiteSpace=wrap;html=1;" vertex="1" parent="WIyWlLk6GJQsqaUBKTNV-1">
          <mxGeometry x="1560" y="310" width="120" height="100" as="geometry" />
        </mxCell>
        <mxCell id="cDFgAh4fGzeyeDYclZq2-35" value="Disable IR timer" style="rounded=1;whiteSpace=wrap;html=1;" vertex="1" parent="WIyWlLk6GJQsqaUBKTNV-1">
          <mxGeometry x="1850" y="330" width="120" height="60" as="geometry" />
        </mxCell>
        <mxCell id="cDFgAh4fGzeyeDYclZq2-41" value="" style="edgeStyle=orthogonalEdgeStyle;rounded=0;orthogonalLoop=1;jettySize=auto;html=1;" edge="1" parent="WIyWlLk6GJQsqaUBKTNV-1" source="cDFgAh4fGzeyeDYclZq2-36" target="cDFgAh4fGzeyeDYclZq2-40">
          <mxGeometry relative="1" as="geometry" />
        </mxCell>
        <mxCell id="cDFgAh4fGzeyeDYclZq2-42" value="Open timer" style="edgeLabel;html=1;align=center;verticalAlign=middle;resizable=0;points=[];" vertex="1" connectable="0" parent="cDFgAh4fGzeyeDYclZq2-41">
          <mxGeometry x="0.3016" y="2" relative="1" as="geometry">
            <mxPoint x="-15" y="2" as="offset" />
          </mxGeometry>
        </mxCell>
        <mxCell id="cDFgAh4fGzeyeDYclZq2-36" value="BLE adv send" style="rounded=0;whiteSpace=wrap;html=1;" vertex="1" parent="WIyWlLk6GJQsqaUBKTNV-1">
          <mxGeometry x="1280" y="260" width="120" height="60" as="geometry" />
        </mxCell>
        <mxCell id="cDFgAh4fGzeyeDYclZq2-44" style="edgeStyle=orthogonalEdgeStyle;rounded=0;orthogonalLoop=1;jettySize=auto;html=1;" edge="1" parent="WIyWlLk6GJQsqaUBKTNV-1" source="cDFgAh4fGzeyeDYclZq2-40">
          <mxGeometry relative="1" as="geometry">
            <mxPoint x="1220" y="290" as="targetPoint" />
            <Array as="points">
              <mxPoint x="1560" y="210" />
              <mxPoint x="1220" y="210" />
            </Array>
          </mxGeometry>
        </mxCell>
        <mxCell id="cDFgAh4fGzeyeDYclZq2-46" value="whether enable" style="edgeLabel;html=1;align=center;verticalAlign=middle;resizable=0;points=[];" vertex="1" connectable="0" parent="cDFgAh4fGzeyeDYclZq2-44">
          <mxGeometry x="0.0064" relative="1" as="geometry">
            <mxPoint as="offset" />
          </mxGeometry>
        </mxCell>
        <mxCell id="cDFgAh4fGzeyeDYclZq2-40" value="Timeout close BLE adv" style="whiteSpace=wrap;html=1;rounded=0;" vertex="1" parent="WIyWlLk6GJQsqaUBKTNV-1">
          <mxGeometry x="1500" y="260" width="120" height="60" as="geometry" />
        </mxCell>
        <mxCell id="cDFgAh4fGzeyeDYclZq2-51" value="" style="edgeStyle=orthogonalEdgeStyle;rounded=0;orthogonalLoop=1;jettySize=auto;html=1;" edge="1" parent="WIyWlLk6GJQsqaUBKTNV-1" source="cDFgAh4fGzeyeDYclZq2-48" target="cDFgAh4fGzeyeDYclZq2-50">
          <mxGeometry relative="1" as="geometry" />
        </mxCell>
        <mxCell id="cDFgAh4fGzeyeDYclZq2-52" value="Component pressed-0" style="edgeLabel;html=1;align=center;verticalAlign=middle;resizable=0;points=[];" vertex="1" connectable="0" parent="cDFgAh4fGzeyeDYclZq2-51">
          <mxGeometry x="-0.1584" y="-2" relative="1" as="geometry">
            <mxPoint as="offset" />
          </mxGeometry>
        </mxCell>
        <mxCell id="cDFgAh4fGzeyeDYclZq2-48" value="&#xa;&lt;span style=&quot;color: rgb(0, 0, 0); font-family: Helvetica; font-size: 12px; font-style: normal; font-variant-ligatures: normal; font-variant-caps: normal; font-weight: 400; letter-spacing: normal; orphans: 2; text-align: center; text-indent: 0px; text-transform: none; widows: 2; word-spacing: 0px; -webkit-text-stroke-width: 0px; background-color: rgb(251, 251, 251); text-decoration-thickness: initial; text-decoration-style: initial; text-decoration-color: initial; float: none; display: inline !important;&quot;&gt;BLE disconnected&lt;/span&gt;&#xa;&#xa;" style="shape=tape;whiteSpace=wrap;html=1;" vertex="1" parent="WIyWlLk6GJQsqaUBKTNV-1">
          <mxGeometry x="90" y="20" width="120" height="100" as="geometry" />
        </mxCell>
        <mxCell id="cDFgAh4fGzeyeDYclZq2-55" value="" style="edgeStyle=orthogonalEdgeStyle;rounded=0;orthogonalLoop=1;jettySize=auto;html=1;entryX=0.5;entryY=0;entryDx=0;entryDy=0;" edge="1" parent="WIyWlLk6GJQsqaUBKTNV-1" source="cDFgAh4fGzeyeDYclZq2-50" target="cDFgAh4fGzeyeDYclZq2-57">
          <mxGeometry relative="1" as="geometry">
            <mxPoint x="150" y="360" as="targetPoint" />
          </mxGeometry>
        </mxCell>
        <mxCell id="cDFgAh4fGzeyeDYclZq2-59" value="Enter sleep" style="edgeLabel;html=1;align=center;verticalAlign=middle;resizable=0;points=[];" vertex="1" connectable="0" parent="cDFgAh4fGzeyeDYclZq2-55">
          <mxGeometry x="0.2314" y="3" relative="1" as="geometry">
            <mxPoint as="offset" />
          </mxGeometry>
        </mxCell>
        <mxCell id="cDFgAh4fGzeyeDYclZq2-50" value="BLE ADV send" style="whiteSpace=wrap;html=1;" vertex="1" parent="WIyWlLk6GJQsqaUBKTNV-1">
          <mxGeometry x="90" y="220" width="120" height="60" as="geometry" />
        </mxCell>
        <mxCell id="cDFgAh4fGzeyeDYclZq2-58" style="edgeStyle=orthogonalEdgeStyle;rounded=0;orthogonalLoop=1;jettySize=auto;html=1;" edge="1" parent="WIyWlLk6GJQsqaUBKTNV-1" source="cDFgAh4fGzeyeDYclZq2-53">
          <mxGeometry relative="1" as="geometry">
            <mxPoint x="150" y="320" as="targetPoint" />
            <Array as="points">
              <mxPoint x="300" y="320" />
            </Array>
          </mxGeometry>
        </mxCell>
        <mxCell id="cDFgAh4fGzeyeDYclZq2-53" value="ADV timeout timer" style="shape=process;whiteSpace=wrap;html=1;backgroundOutline=1;" vertex="1" parent="WIyWlLk6GJQsqaUBKTNV-1">
          <mxGeometry x="240" y="220" width="120" height="60" as="geometry" />
        </mxCell>
        <mxCell id="cDFgAh4fGzeyeDYclZq2-61" value="" style="edgeStyle=orthogonalEdgeStyle;rounded=0;orthogonalLoop=1;jettySize=auto;html=1;" edge="1" parent="WIyWlLk6GJQsqaUBKTNV-1" source="cDFgAh4fGzeyeDYclZq2-57" target="cDFgAh4fGzeyeDYclZq2-60">
          <mxGeometry relative="1" as="geometry" />
        </mxCell>
        <mxCell id="cDFgAh4fGzeyeDYclZq2-62" value="timeout" style="edgeLabel;html=1;align=center;verticalAlign=middle;resizable=0;points=[];" vertex="1" connectable="0" parent="cDFgAh4fGzeyeDYclZq2-61">
          <mxGeometry x="-0.2894" y="2" relative="1" as="geometry">
            <mxPoint as="offset" />
          </mxGeometry>
        </mxCell>
        <mxCell id="cDFgAh4fGzeyeDYclZq2-64" value="" style="edgeStyle=orthogonalEdgeStyle;rounded=0;orthogonalLoop=1;jettySize=auto;html=1;" edge="1" parent="WIyWlLk6GJQsqaUBKTNV-1" source="cDFgAh4fGzeyeDYclZq2-57" target="cDFgAh4fGzeyeDYclZq2-63">
          <mxGeometry relative="1" as="geometry" />
        </mxCell>
        <mxCell id="cDFgAh4fGzeyeDYclZq2-65" value="connected" style="edgeLabel;html=1;align=center;verticalAlign=middle;resizable=0;points=[];" vertex="1" connectable="0" parent="cDFgAh4fGzeyeDYclZq2-64">
          <mxGeometry x="0.2902" relative="1" as="geometry">
            <mxPoint as="offset" />
          </mxGeometry>
        </mxCell>
        <mxCell id="cDFgAh4fGzeyeDYclZq2-57" value="Deep sleep" style="ellipse;whiteSpace=wrap;html=1;" vertex="1" parent="WIyWlLk6GJQsqaUBKTNV-1">
          <mxGeometry x="90" y="370" width="120" height="80" as="geometry" />
        </mxCell>
        <mxCell id="cDFgAh4fGzeyeDYclZq2-60" value="disable ADV timer" style="shape=process;whiteSpace=wrap;html=1;backgroundOutline=1;" vertex="1" parent="WIyWlLk6GJQsqaUBKTNV-1">
          <mxGeometry x="290" y="380" width="120" height="60" as="geometry" />
        </mxCell>
        <mxCell id="cDFgAh4fGzeyeDYclZq2-70" value="" style="edgeStyle=orthogonalEdgeStyle;rounded=0;orthogonalLoop=1;jettySize=auto;html=1;" edge="1" parent="WIyWlLk6GJQsqaUBKTNV-1" source="cDFgAh4fGzeyeDYclZq2-63" target="cDFgAh4fGzeyeDYclZq2-69">
          <mxGeometry relative="1" as="geometry" />
        </mxCell>
        <mxCell id="cDFgAh4fGzeyeDYclZq2-63" value="BLE connected ind&lt;br&gt;&amp;amp;&lt;br&gt;BLE info ind" style="whiteSpace=wrap;html=1;" vertex="1" parent="WIyWlLk6GJQsqaUBKTNV-1">
          <mxGeometry x="90" y="540" width="120" height="60" as="geometry" />
        </mxCell>
        <mxCell id="cDFgAh4fGzeyeDYclZq2-71" style="edgeStyle=orthogonalEdgeStyle;rounded=0;orthogonalLoop=1;jettySize=auto;html=1;" edge="1" parent="WIyWlLk6GJQsqaUBKTNV-1" source="cDFgAh4fGzeyeDYclZq2-66">
          <mxGeometry relative="1" as="geometry">
            <mxPoint x="150" y="640" as="targetPoint" />
            <Array as="points">
              <mxPoint x="300" y="640" />
              <mxPoint x="300" y="640" />
            </Array>
          </mxGeometry>
        </mxCell>
        <mxCell id="cDFgAh4fGzeyeDYclZq2-66" value="Parameter update timer" style="shape=process;whiteSpace=wrap;html=1;backgroundOutline=1;" vertex="1" parent="WIyWlLk6GJQsqaUBKTNV-1">
          <mxGeometry x="240" y="540" width="120" height="60" as="geometry" />
        </mxCell>
        <mxCell id="cDFgAh4fGzeyeDYclZq2-75" style="edgeStyle=orthogonalEdgeStyle;rounded=0;orthogonalLoop=1;jettySize=auto;html=1;entryX=0;entryY=0.5;entryDx=0;entryDy=0;" edge="1" parent="WIyWlLk6GJQsqaUBKTNV-1" source="cDFgAh4fGzeyeDYclZq2-69" target="cDFgAh4fGzeyeDYclZq2-74">
          <mxGeometry relative="1" as="geometry" />
        </mxCell>
        <mxCell id="cDFgAh4fGzeyeDYclZq2-69" value="Parameter update" style="ellipse;whiteSpace=wrap;html=1;" vertex="1" parent="WIyWlLk6GJQsqaUBKTNV-1">
          <mxGeometry x="110" y="670" width="80" height="80" as="geometry" />
        </mxCell>
        <mxCell id="cDFgAh4fGzeyeDYclZq2-73" value="" style="endArrow=classic;html=1;rounded=0;entryX=0.5;entryY=1;entryDx=0;entryDy=0;" edge="1" parent="WIyWlLk6GJQsqaUBKTNV-1" target="cDFgAh4fGzeyeDYclZq2-60">
          <mxGeometry width="50" height="50" relative="1" as="geometry">
            <mxPoint x="150" y="480" as="sourcePoint" />
            <mxPoint x="360" y="480" as="targetPoint" />
            <Array as="points">
              <mxPoint x="350" y="480" />
            </Array>
          </mxGeometry>
        </mxCell>
        <mxCell id="cDFgAh4fGzeyeDYclZq2-74" value="Disable Parameter update timer" style="shape=process;whiteSpace=wrap;html=1;backgroundOutline=1;" vertex="1" parent="WIyWlLk6GJQsqaUBKTNV-1">
          <mxGeometry x="240" y="680" width="120" height="60" as="geometry" />
        </mxCell>
        <mxCell id="cDFgAh4fGzeyeDYclZq2-77" value="In connection" style="text;html=1;strokeColor=none;fillColor=none;align=center;verticalAlign=middle;whiteSpace=wrap;rounded=0;" vertex="1" parent="WIyWlLk6GJQsqaUBKTNV-1">
          <mxGeometry x="350" y="630" width="60" height="30" as="geometry" />
        </mxCell>
        <mxCell id="cDFgAh4fGzeyeDYclZq2-81" style="edgeStyle=orthogonalEdgeStyle;rounded=0;orthogonalLoop=1;jettySize=auto;html=1;entryX=1;entryY=0.5;entryDx=0;entryDy=0;entryPerimeter=0;" edge="1" parent="WIyWlLk6GJQsqaUBKTNV-1" source="cDFgAh4fGzeyeDYclZq2-78" target="cDFgAh4fGzeyeDYclZq2-48">
          <mxGeometry relative="1" as="geometry">
            <Array as="points">
              <mxPoint x="680" y="70" />
            </Array>
          </mxGeometry>
        </mxCell>
        <mxCell id="cDFgAh4fGzeyeDYclZq2-78" value="disconnect BLE &amp;amp; unpair LTK" style="rounded=0;whiteSpace=wrap;html=1;" vertex="1" parent="WIyWlLk6GJQsqaUBKTNV-1">
          <mxGeometry x="620" y="620" width="120" height="60" as="geometry" />
        </mxCell>
      </root>
    </mxGraphModel>
  </diagram>
</mxfile>
